<?xml version="1.0" encoding="utf-8"?>
<!-- Generator: Avocode 2.4.3-3630f5a - http://avocode.com -->
<svg height="17" width="22" xmlns:xlink="http://www.w3.org/1999/xlink" xmlns="http://www.w3.org/2000/svg" viewBox="0 0 22 17">
    <path fill="#757575" fill-rule="evenodd" d="M 15.34 3.07 C 17.04 3.07 18.56 4.55 18.79 6.44 C 19.08 8.83 17.15 11.98 10.92 13.81 C 4.7 11.99 2.76 8.85 3.05 6.46 C 3.29 4.56 4.81 3.07 6.52 3.07 C 7.36 3.07 8.23 3.42 9.1 4.11 C 9.1 4.11 10.92 5.55 10.92 5.55 C 10.92 5.55 12.74 4.11 12.74 4.11 C 13.61 3.42 14.49 3.07 15.34 3.07 M 15.34 0.01 C 13.92 0.01 12.4 0.51 10.92 1.69 C 9.44 0.52 7.93 0.01 6.52 0.01 C -0.6 0.01 -5.09 12.79 10.92 16.97 C 26.93 12.76 22.45 0.01 15.34 0.01 C 15.34 0.01 15.34 0.01 15.34 0.01 Z" />
</svg>