<?xml version="1.0" encoding="utf-8"?>
<!-- Generator: Avocode 2.4.3-3630f5a - http://avocode.com -->
<svg height="23" width="19" xmlns:xlink="http://www.w3.org/1999/xlink" xmlns="http://www.w3.org/2000/svg" viewBox="0 0 19 23">
    <path fill="#000000" fill-rule="evenodd" d="M 18.82 21.29 C 18.82 21.29 14.99 15.7 14.99 15.7 C 16.86 14.16 18.06 11.86 18.06 9.29 C 18.06 4.67 14.2 0.91 9.45 0.91 C 4.7 0.91 0.84 4.67 0.84 9.29 C 0.84 13.91 4.7 17.67 9.45 17.67 C 10.47 17.67 11.44 17.49 12.35 17.17 C 12.35 17.17 16.29 22.93 16.29 22.93 C 16.29 22.93 18.82 21.29 18.82 21.29 Z M 3.88 9.29 C 3.88 6.3 6.38 3.86 9.45 3.86 C 12.52 3.86 15.02 6.3 15.02 9.29 C 15.02 12.28 12.52 14.71 9.45 14.71 C 6.38 14.71 3.88 12.28 3.88 9.29 Z" />
</svg>