<?xml version="1.0" encoding="utf-8"?>
<!-- Generator: Avocode 2.4.3-3630f5a - http://avocode.com -->
<svg height="20" width="22" xmlns:xlink="http://www.w3.org/1999/xlink" xmlns="http://www.w3.org/2000/svg" viewBox="0 0 22 20">
    <path fill="#db4e47" fill-rule="evenodd" d="M 18 14 C 18 14 1 14 1 14 C 1 14 3.91 6 3.91 6 C 3.91 6 0 6 0 6 C 0 6 1 3 1 3 C 1 3 2 0 2 0 C 2 0 5 0 5 0 C 5 0 4 3 4 3 C 4 3 5 3 5 3 C 5 3 6 3 6 3 C 6 3 22 3 22 3 C 22 3 18 14 18 14 Z M 7.1 6 C 7.1 6 5.28 11 5.28 11 C 5.28 11 15.9 11 15.9 11 C 15.9 11 17.72 6 17.72 6 C 17.72 6 7.1 6 7.1 6 Z M 2 16 C 3.11 16 4 16.9 4 18 C 4 19.11 3.11 20 2 20 C 0.89 20 0 19.11 0 18 C 0 16.9 0.89 16 2 16 Z M 16 16 C 17.11 16 18 16.9 18 18 C 18 19.11 17.11 20 16 20 C 14.89 20 14 19.11 14 18 C 14 16.9 14.89 16 16 16 Z" />
</svg>