<?xml version="1.0" encoding="utf-8"?>
<!-- Generator: Avocode 2.4.3-3630f5a - http://avocode.com -->
<svg height="18" width="15" xmlns:xlink="http://www.w3.org/1999/xlink" xmlns="http://www.w3.org/2000/svg" viewBox="0 0 15 18">
    <path fill="#757575" fill-rule="evenodd" d="M 12 18 C 12 18 12 7 12 7 C 12 7 15 7 15 7 C 15 7 15 18 15 18 C 15 18 12 18 12 18 Z M 6 4 C 6 4 9 4 9 4 C 9 4 9 18 9 18 C 9 18 6 18 6 18 C 6 18 6 4 6 4 Z M 0 0 C 0 0 3 0 3 0 C 3 0 3 18 3 18 C 3 18 0 18 0 18 C 0 18 0 0 0 0 Z" />
</svg>